# xmcd CD database file
#
# Track frame offsets:
#	150
#	18189
#	34203
#	61022
#	77633
#	93329
#	111433
#	130232
#	146626
#	162245
#
# Disc length: 2385 seconds
#
# Revision: 3
# Processed by: cddbd v1.5.2PL0 Copyright (c) Steve Scherf et al.
# Submitted via: CDex 1.51
#
DISCID=7c094f0a
DTITLE=Various Artist - ZM-PCP-23-CD-2
DYEAR=1900
DGENRE=Blues
TTITLE0=OneRepublic - Love Runs Out
TTITLE1=Maroon 5 - Maps
TTITLE2=Pharrell Williams - Marilyn Monroe
TTITLE3=Example - One More Day (stay with me)
TTITLE4=Ariana Grande Ft Iggy Azalea - Problem
TTITLE5=Magic! - Rude
TTITLE6=Little Mix - Salute
TTITLE7=Lorde - Tennis Court
TTITLE8=Tiesto Ft atthew Koma - Wasted
TTITLE9=Saturdays The - What Are You Waiting For
EXTD=
EXTT0=
EXTT1=
EXTT2=
EXTT3=
EXTT4=
EXTT5=
EXTT6=
EXTT7=
EXTT8=
EXTT9=
PLAYORDER=
